HIERARCHY
ROOT Hips
{
     OFFSET 12.68610 96.83590 -10.06510
     CHANNELS 6 Xposition Yposition Zposition Zrotation Xrotation Yrotation
     JOINT Spine
     {
          OFFSET 0.00000 11.89050 -0.00000
          CHANNELS 3 Zrotation Xrotation Yrotation
          JOINT Spine1
          {
               OFFSET -0.00000 25.65740 0.12766
               CHANNELS 3 Zrotation Xrotation Yrotation
               JOINT HEad
               {
                    OFFSET -0.00000 8.73416 0.01134
                    CHANNELS 3 Zrotation Xrotation Yrotation
                    End Site
                    {
                         OFFSET -0.29000 12.77420 2.51395
                    }
               }
               JOINT LeftShoulder1
               {
                    OFFSET 8.99000 -0.36225 -0.22000
                    CHANNELS 3 Zrotation Xrotation Yrotation
                    JOINT LeftArm
                    {
                         OFFSET 10.28270 -0.00338 0.32212
                         CHANNELS 3 Zrotation Xrotation Yrotation
                         JOINT LeftForeArm
                         {
                              OFFSET 32.76690 0.09914 -1.42434
                              CHANNELS 3 Zrotation Xrotation Yrotation
                              JOINT LeftHand
                              {
                                   OFFSET 27.56430 0.08536 1.02216
                                   CHANNELS 3 Zrotation Xrotation Yrotation
                                   End Site
                                   {
                                        OFFSET 16.74430 -0.60000 1.50291
                                   }
                              }
                         }
                    }
               }
               JOINT RightShoulder
               {
                    OFFSET -8.99000 -0.36225 -0.22000
                    CHANNELS 3 Zrotation Xrotation Yrotation
                    JOINT RightArm
                    {
                         OFFSET -10.28270 -0.00338 0.32212
                         CHANNELS 3 Zrotation Xrotation Yrotation
                         JOINT RightForeArm
                         {
                              OFFSET -32.89710 0.09914 -1.42434
                              CHANNELS 3 Zrotation Xrotation Yrotation
                              JOINT RightHand
                              {
                                   OFFSET -27.49210 0.08536 1.02216
                                   CHANNELS 3 Zrotation Xrotation Yrotation
                                   End Site
                                   {
                                        OFFSET -16.63120 -0.60000 1.50291
                                   }
                              }
                         }
                    }
               }
          }
     }
     JOINT LeftUpLeg
     {
          OFFSET 8.94580 -8.66707 0.10165
          CHANNELS 3 Zrotation Xrotation Yrotation
          JOINT LeftLeg
          {
               OFFSET 0.00000 -44.42270 1.37270
               CHANNELS 3 Zrotation Xrotation Yrotation
               JOINT LeftFoot
               {
                    OFFSET -0.25355 -42.09240 -1.46059
                    CHANNELS 3 Zrotation Xrotation Yrotation
                    JOINT LeftToes
                    {
                         OFFSET -0.04000 -4.41509 8.49910
                         CHANNELS 3 Zrotation Xrotation Yrotation
                         End Site
                         {
                              OFFSET 0.08000 -0.04745 9.77979
                         }
                    }
               }
          }
     }
     JOINT RightUpLeg
     {
          OFFSET -8.94580 -8.66707 0.10165
          CHANNELS 3 Zrotation Xrotation Yrotation
          JOINT RightLeg
          {
               OFFSET -0.00000 -44.42270 1.37270
               CHANNELS 3 Zrotation Xrotation Yrotation
               JOINT RightFoot
               {
                    OFFSET 0.25355 -42.09240 -1.46059
                    CHANNELS 3 Zrotation Xrotation Yrotation
                    JOINT RightToes
                    {
                         OFFSET 0.04000 -4.41509 8.49910
                         CHANNELS 3 Zrotation Xrotation Yrotation
                         End Site
                         {
                              OFFSET -0.08000 -0.13745 9.77979
                         }
                    }
               }
          }
     }
}
MOTION
Frames: 8
Frame Time: 0.01667
20.24810 86.65010 -22.57630 5.75705 -11.24570 35.13870 13.52130 9.46059 -2.66451 2.14704 21.31020 -1.83762 -6.13709 -6.68506 24.67110 -0.00000 -0.00000 0.00000 -140.70900 -72.17780 -106.26100 -41.58060 61.04080 -84.17570 17.04220 7.53676 -12.22190 14.07870 0.59728 0.93359 79.15720 -0.57362 70.97680 12.63320 31.54970 101.48200 18.18710 11.79940 7.24398 24.05230 -18.02890 -35.86200 -21.50310 30.26030 73.99090 -30.98630 -11.36820 -0.98783 8.45786 28.31060 -33.20380 -33.21630 4.90682 4.72146 51.34040 23.19720 -62.81120 -35.12400 -6.08199 0.34260 4.77401 -48.97160 1.39724 
21.64840 86.38910 -22.89000 5.52272 -11.19960 36.41280 13.80860 9.12142 -2.41565 2.50099 20.76990 -1.52795 -5.91998 -6.89611 24.37260 -0.00000 -0.00000 0.00000 -139.02299 -72.16400 -104.40800 -41.03880 60.85280 -84.76190 16.89340 7.57036 -12.14030 14.33360 0.63219 1.10195 79.03950 -0.33740 71.03060 12.81240 31.55420 101.39200 18.35300 11.81850 7.25699 23.82230 -18.99490 -35.68620 -21.24710 31.36580 74.45100 -32.28880 -11.66960 -1.12080 7.74594 29.05510 -31.44900 -33.67050 5.65123 5.33882 51.21930 22.53260 -62.52120 -34.61820 -5.92510 0.38515 4.11967 -47.67100 -0.16019 
23.03530 86.22710 -23.22990 5.34800 -11.22640 37.70800 13.88060 8.87245 -2.16840 2.79804 20.36930 -1.22916 -5.72615 -7.16253 23.98070 -0.00000 -0.00000 0.00000 -137.98801 -72.00340 -103.27100 -40.55980 60.85670 -85.21650 16.86300 7.58386 -12.07720 14.53970 0.66821 1.28004 79.03550 -0.09700 71.09650 13.01800 31.59170 101.24500 18.44290 11.85110 7.39713 23.86770 -19.83770 -34.73460 -21.32450 32.08140 74.73330 -32.28460 -10.82260 -0.87659 7.35929 28.65520 -30.59880 -34.02920 6.52300 6.16318 50.93960 21.70260 -62.00400 -34.13090 -5.64563 0.46520 3.35698 -45.94130 -2.13086 
24.36670 86.21790 -23.59130 5.32450 -11.26820 39.10660 13.67770 8.73056 -1.94468 2.99661 20.13640 -0.97829 -5.59512 -7.38273 23.45290 -0.00000 -0.00000 0.00000 -137.80600 -71.64620 -103.04200 -40.27510 61.05520 -85.37350 16.93950 7.57941 -12.03080 14.60200 0.70443 1.47983 79.18540 0.15610 71.17780 13.13050 31.60860 101.11700 18.37040 11.88150 7.62504 24.25450 -20.45800 -32.77890 -21.66580 32.07380 74.41670 -30.49310 -8.83423 -0.28593 7.45173 26.74090 -31.03110 -34.35890 7.50390 7.15969 50.49500 20.79260 -61.31830 -33.56490 -5.19197 0.59485 2.60660 -43.68270 -4.25458 
25.58830 86.44140 -23.96950 5.54479 -11.23180 40.68690 13.05960 8.70150 -1.74005 3.05136 20.04880 -0.78549 -5.51951 -7.45176 22.78480 -0.00000 -0.00000 0.00000 -138.03200 -71.08600 -103.26200 -40.25860 61.34770 -85.13360 17.06130 7.56189 -12.02960 14.56330 0.73764 1.67908 79.42700 0.37771 71.21730 13.12690 31.57400 101.05900 18.16480 11.90150 7.87811 24.94570 -20.64070 -29.73770 -22.07280 30.93700 73.14520 -26.88460 -5.85301 0.45318 7.98755 22.88930 -32.91670 -34.74630 8.57688 8.33957 49.88310 19.77920 -60.57790 -32.98280 -4.43156 0.81227 1.96513 -40.88700 -6.32912 
26.67020 86.95350 -24.36460 6.05305 -11.03830 42.47320 11.91320 8.79043 -1.53706 2.93839 20.07550 -0.62616 -5.46500 -7.36387 22.00070 -0.00000 -0.00000 0.00000 -138.03600 -70.33480 -103.29900 -40.55840 61.62370 -84.44350 17.17710 7.53502 -12.09810 14.53290 0.76057 1.81786 79.68600 0.52914 71.16680 13.05900 31.49370 101.07600 17.96510 11.91470 8.09042 25.71380 -20.13630 -25.83750 -22.32350 28.45930 70.93960 -22.07730 -2.14687 1.07440 8.70434 17.40240 -36.05620 -35.27180 9.70565 9.78529 49.14830 18.57080 -59.91190 -32.54550 -3.22243 1.16069 1.47216 -37.55420 -8.29818 
27.64270 87.73230 -24.78170 6.80384 -10.67450 44.42640 10.29220 8.98566 -1.32938 2.69050 20.18680 -0.46427 -5.42527 -7.18997 21.12030 -0.00000 -0.00000 0.00000 -137.40601 -69.41150 -102.73600 -41.16080 61.80380 -83.33560 17.26000 7.50340 -12.23080 14.59010 0.76942 1.85831 79.90880 0.58375 71.02190 12.97690 31.40060 101.15200 17.89200 11.92690 8.21457 26.21100 -18.83840 -21.60540 -22.31230 24.79570 68.22540 -16.94950 1.93974 1.40136 9.31636 11.30560 -40.02910 -35.96410 10.81330 11.54340 48.37970 17.17840 -59.41680 -32.31800 -1.51580 1.65696 1.13692 -33.61210 -10.21200 
28.59400 88.66790 -25.22580 7.68506 -10.21090 46.47540 8.45289 9.23943 -1.13287 2.38935 20.33830 -0.28361 -5.39792 -6.99893 20.16110 -0.00000 -0.00000 0.00000 -136.09599 -68.35580 -101.51400 -41.91880 61.85940 -81.98310 17.30820 7.47084 -12.40340 14.76620 0.77122 1.83549 80.03160 0.49279 70.80330 12.90640 31.33520 101.28100 17.95530 11.93540 8.22415 26.17450 -16.90400 -17.67480 -22.09690 20.45660 65.59800 -12.14840 6.02948 1.40029 9.65759 5.44107 -44.37290 -36.77630 11.80050 13.52190 47.67150 15.82040 -59.15560 -32.23300 0.60744 2.27793 0.98329 -28.92630 -12.08610 
